<svg xmlns="http://www.w3.org/2000/svg" viewBox="0 0 1600 1200">
  <defs>
    <linearGradient id="fond" x1="0" y1="0" x2="1" y2="1">
      <stop offset="0" stop-color="#57534e"/>
      <stop offset="1" stop-color="#292524"/>
    </linearGradient>
  </defs>
  <rect width="1600" height="1200" fill="url(#fond)"/>
<rect y="980" width="1600" height="220" fill="#44403c"/>
  <rect y="960" width="1600" height="20" fill="#a8a29e" fill-opacity="0.5"/>
  <rect x="200" y="300" width="400" height="460" rx="14" fill="#a8a29e"/>
  <rect x="225" y="325" width="350" height="410" rx="6" fill="#d6d3d1"/>
  <circle cx="480" cy="430" r="56" fill="#f59e0b"/>
  <rect x="392" y="325" width="16" height="410" fill="#a8a29e"/>
  <rect x="180" y="760" width="440" height="24" rx="8" fill="#a8a29e"/>
  <g fill="none" stroke="#fb923c" stroke-opacity="0.7" stroke-width="12" stroke-linecap="round">
    <path d="M900 900c30 -40 -30 -80 0 -120c30 -40 -30 -80 0 -120"/>
    <path d="M1100 900c30 -40 -30 -80 0 -120c30 -40 -30 -80 0 -120"/>
    <path d="M1300 900c30 -40 -30 -80 0 -120c30 -40 -30 -80 0 -120"/>
  </g>
</svg>
