<svg xmlns="http://www.w3.org/2000/svg" viewBox="0 0 1600 1200">
  <defs>
    <linearGradient id="fond" x1="0" y1="0" x2="1" y2="1">
      <stop offset="0" stop-color="#1e293b"/>
      <stop offset="1" stop-color="#0f172a"/>
    </linearGradient>
    <radialGradient id="halo" cx="0.5" cy="0.5" r="0.5">
      <stop offset="0" stop-color="#facc15" stop-opacity="0.22"/>
      <stop offset="1" stop-color="#facc15" stop-opacity="0"/>
    </radialGradient>
  </defs>
  <rect width="1600" height="1200" fill="url(#fond)"/>
  <g fill="none" stroke="#94a3b8" stroke-opacity="0.2" stroke-width="5">
    <path d="M0 200H300L380 280H480"/>
    <path d="M0 1000H280L360 920H500"/>
    <path d="M1600 1020H1340L1260 940H1120"/>
  </g>
  <circle cx="820" cy="600" r="480" fill="url(#halo)"/>
  <rect x="560" y="300" width="380" height="620" rx="40" fill="#e2e8f0"/>
  <rect x="620" y="370" width="260" height="130" rx="18" fill="#cbd5e1"/>
  <rect x="700" y="560" width="100" height="260" rx="20" fill="#0f172a"/>
  <rect x="716" y="700" width="68" height="104" rx="12" fill="#ef4444"/>
  <path d="M1110 330 1250 590H970Z" fill="#facc15" stroke="#0f172a" stroke-width="14" stroke-linejoin="round"/>
  <rect x="1100" y="410" width="20" height="100" rx="10" fill="#0f172a"/>
  <circle cx="1110" cy="545" r="13" fill="#0f172a"/>
  <g stroke="#facc15" stroke-width="12" stroke-linecap="round">
    <path d="M520 400 460 370"/>
    <path d="M515 480 445 490"/>
    <path d="M540 330 500 270"/>
  </g>
</svg>
